<svg width="16" height="16" viewBox="0 0 16 16" fill="none" xmlns="http://www.w3.org/2000/svg">
<path d="M8 1.33333C4.326 1.33333 1.33333 4.326 1.33333 8C1.33333 11.674 4.326 14.6667 8 14.6667C11.674 14.6667 14.6667 11.674 14.6667 8C14.6667 4.326 11.674 1.33333 8 1.33333ZM8 2.66667C10.9534 2.66667 13.3333 5.04658 13.3333 8C13.3333 10.9534 10.9534 13.3333 8 13.3333C5.04659 13.3333 2.66667 10.9534 2.66667 8C2.66667 5.04658 5.04659 2.66667 8 2.66667ZM7.33333 4.66667V6H8.66667V4.66667H7.33333ZM7.33333 7.33333V11.3333H8.66667V7.33333H7.33333Z" fill="#878787"/>
</svg>
