<svg width="335" height="108" viewBox="0 0 335 108" fill="none" xmlns="http://www.w3.org/2000/svg">
<g clip-path="url(#clip0)">
<path d="M118.752 15.292C118.752 7.16814 124.965 0.95575 133.566 0.95575C138.345 0.95575 141.929 2.38938 144.796 5.0177L140.257 10.5133C138.345 8.8407 136.434 7.88495 133.566 7.88495C129.504 7.88495 126.637 11.2301 126.637 15.531C126.637 20.0708 129.743 23.177 134.044 23.177C135.956 23.177 137.389 22.6991 138.345 21.9823V18.3982H132.85V12.6637H145.752V25.0885C142.885 27.4779 138.823 29.3894 133.805 29.3894C125.204 29.3894 118.752 23.4159 118.752 15.292Z" fill="#1F2522"/>
<path d="M150.292 1.43362H157.938V22.2212H171.319V28.9115H150.292V1.43362Z" fill="#1F2522"/>
<path d="M172.513 15.292C172.513 7.40708 178.965 0.95575 187.327 0.95575C195.929 0.95575 202.142 7.16814 202.142 15.292C202.142 23.177 195.69 29.6283 187.327 29.6283C178.726 29.3894 172.513 23.177 172.513 15.292ZM194.257 15.292C194.257 11.2301 191.389 7.88495 187.089 7.88495C183.027 7.88495 180.159 11.2301 180.159 15.292C180.159 19.354 183.027 22.6991 187.089 22.6991C191.628 22.4602 194.257 19.115 194.257 15.292Z" fill="#1F2522"/>
<path d="M205.726 1.43362H219.823C223.168 1.43362 225.796 2.38938 227.23 3.823C228.425 5.01769 228.903 6.45132 228.903 8.36283C228.903 11.469 226.991 13.3805 224.602 14.5752C227.947 15.7699 230.097 17.6814 230.097 21.2655C230.097 26.0442 226.274 28.9115 219.584 28.9115H205.487V1.43362H205.726ZM217.912 12.1858C220.301 12.1858 221.496 11.469 221.496 9.79646C221.496 8.36283 220.301 7.40708 218.15 7.40708H213.133V12.1858H217.912ZM219.106 22.6991C221.496 22.6991 222.69 21.7434 222.69 20.0708C222.69 18.6372 221.496 17.6814 218.867 17.6814H213.133V22.6991H219.106Z" fill="#1F2522"/>
<path d="M242.522 1.1947H249.929L261.637 28.9115H253.274L251.363 23.8938H240.85L238.938 28.9115H230.814L242.522 1.1947ZM249.212 17.9204L246.106 10.2743L243 18.1593H249.212V17.9204Z" fill="#1F2522"/>
<path d="M263.788 1.43362H271.434V22.2212H284.575V28.9115H263.788V1.43362Z" fill="#1F2522"/>
<path d="M119.708 40.6195H131.416C138.345 40.6195 142.885 44.2035 142.885 50.177C142.885 56.6283 137.867 59.9735 130.938 59.9735H127.115V67.8584H119.469V40.6195H119.708ZM130.938 54.2389C133.566 54.2389 135.239 52.8053 135.239 50.6549C135.239 48.2655 133.566 47.0708 130.938 47.0708H127.354V54.2389H130.938Z" fill="#1F2522"/>
<path d="M152.92 40.3805H160.327L172.035 68.0973H163.912L162 63.0796H151.487L149.575 68.0973H141.451L152.92 40.3805ZM159.611 57.3451L156.504 49.4602L153.637 57.3451H159.611Z" fill="#1F2522"/>
<path d="M174.186 40.6195H187.327C191.628 40.6195 194.496 41.8142 196.407 43.7257C198.08 45.3982 198.796 47.3097 198.796 50.177C198.796 54.4779 196.646 57.1062 193.062 58.5398L199.752 68.0974H190.911L185.416 59.7345H182.071V68.0974H174.425V40.6195H174.186ZM186.85 54C189.478 54 190.911 52.8053 190.911 50.6549C190.911 48.5044 189.239 47.3097 186.85 47.3097H181.832V54H186.85Z" fill="#1F2522"/>
<path d="M208.832 47.3097H200.708V40.6195H224.841V47.3097H216.478V68.0974H208.832V47.3097Z" fill="#1F2522"/>
<path d="M227.23 40.6195H234.398L245.628 55.1947V40.6195H253.274V68.0974H246.584L234.876 53.0443V68.0974H227.23V40.6195Z" fill="#1F2522"/>
<path d="M258.292 40.6195H280.513V47.0708H265.938V51.3717H279.08V57.3451H265.938V61.646H280.752V68.0974H258.292V40.6195Z" fill="#1F2522"/>
<path d="M284.814 40.6195H297.956C302.257 40.6195 305.124 41.8142 307.035 43.7257C308.708 45.3982 309.425 47.3097 309.425 50.177C309.425 54.4779 307.274 57.1062 303.69 58.5398L310.381 68.0974H301.54L296.044 59.7345H292.699V68.0974H285.053V40.6195H284.814ZM297.478 54C300.106 54 301.54 52.8053 301.54 50.6549C301.54 48.5044 299.867 47.3097 297.478 47.3097H292.46V54H297.478Z" fill="#1F2522"/>
<path d="M310.858 64.0354L315.159 59.0177C317.788 61.1681 320.894 62.3628 324 62.3628C326.15 62.3628 327.106 61.646 327.106 60.4513C327.106 59.2566 326.15 58.7788 322.566 57.823C316.593 56.3894 312.292 54.9557 312.292 49.2212C312.292 44.2035 316.354 40.3805 323.044 40.3805C327.823 40.3805 331.407 41.5752 334.274 43.9646L330.451 49.4602C327.823 47.7876 325.195 46.8319 322.805 46.8319C320.894 46.8319 319.938 47.5487 319.938 48.5044C319.938 49.6991 320.894 50.4159 324.717 51.1327C331.168 52.5664 334.991 54.4779 334.991 59.7345C334.991 65.469 330.451 68.8141 323.761 68.8141C318.982 68.5752 314.204 67.1416 310.858 64.0354Z" fill="#1F2522"/>
<path d="M130.699 107.522H121.142V80.0443H130.699C139.301 80.0443 145.274 86.0177 145.274 93.6637C145.513 101.549 139.54 107.522 130.699 107.522ZM130.699 82.9115H124.248V104.655H130.699C137.628 104.655 142.168 99.8761 142.168 93.9027C142.168 87.6903 137.867 82.9115 130.699 82.9115Z" fill="#1F2522"/>
<path d="M154.593 80.0443H151.487V107.522H154.593V80.0443Z" fill="#1F2522"/>
<path d="M174.664 108C166.062 108 160.566 101.788 160.566 93.9026C160.566 86.2566 166.062 79.5663 174.425 79.5663C178.965 79.5663 181.832 81 184.699 83.1504L182.788 85.5398C180.637 83.6283 178.248 82.4336 174.425 82.4336C168.212 82.4336 163.912 87.6902 163.912 93.6637C163.912 100.354 168.212 105.133 174.903 105.133C178.009 105.133 180.876 103.938 182.788 102.265V95.5752H174.425V92.7079H185.894V103.699C183.027 106.088 179.204 108 174.664 108Z" fill="#1F2522"/>
<path d="M195.451 80.0443H192.345V107.522H195.451V80.0443Z" fill="#1F2522"/>
<path d="M212.655 107.522H209.31V82.9115H200.23V80.0443H221.735V82.9115H212.655V107.522Z" fill="#1F2522"/>
<path d="M248.257 107.522H244.912L241.805 100.354H226.752L223.407 107.522H220.301L232.965 79.8053H235.832L248.257 107.522ZM234.159 83.3894L227.947 97.4867H240.611L234.159 83.3894Z" fill="#1F2522"/>
<path d="M252.796 80.0443H255.903V104.655H271.434V107.522H252.796V80.0443Z" fill="#1F2522"/>
<path d="M41.5752 0H35.6017V5.97345H41.5752V0Z" fill="#B91F27"/>
<path d="M41.5752 5.97345H35.6017V11.9469H41.5752V5.97345Z" fill="#1F2522"/>
<path d="M41.5752 11.9469H35.6017V17.9203H41.5752V11.9469Z" fill="#E73B2B"/>
<path d="M41.5752 17.9203H35.6017V23.8938H41.5752V17.9203Z" fill="#FFDE44"/>
<path d="M41.5752 23.8938H35.6017V29.8672H41.5752V23.8938Z" fill="#B91F27"/>
<path d="M41.5752 29.6283H35.6017V35.6017H41.5752V29.6283Z" fill="#273C4E"/>
<path d="M47.5486 0H41.5752V5.97345H47.5486V0Z" fill="#FFDE44"/>
<path d="M47.5486 5.97345H41.5752V11.9469H47.5486V5.97345Z" fill="#273C4E"/>
<path d="M47.5486 11.9469H41.5752V17.9203H47.5486V11.9469Z" fill="#B91F27"/>
<path d="M47.5486 17.9203H41.5752V23.8938H47.5486V17.9203Z" fill="#E73B2B"/>
<path d="M47.5486 23.8938H41.5752V29.8672H47.5486V23.8938Z" fill="#FFDE44"/>
<path d="M47.5486 29.6283H41.5752V35.6017H47.5486V29.6283Z" fill="#1F2522"/>
<path d="M53.5221 0H47.5486V5.97345H53.5221V0Z" fill="#1F2522"/>
<path d="M53.5221 5.97345H47.5486V11.9469H53.5221V5.97345Z" fill="#B91F27"/>
<path d="M53.5221 11.9469H47.5486V17.9203H53.5221V11.9469Z" fill="#E73B2B"/>
<path d="M53.5221 17.9203H47.5486V23.8938H53.5221V17.9203Z" fill="#273C4E"/>
<path d="M53.5221 23.8938H47.5486V29.8672H53.5221V23.8938Z" fill="#E73B2B"/>
<path d="M53.5221 29.6283H47.5486V35.6017H53.5221V29.6283Z" fill="#FFDE44"/>
<path d="M59.4956 0H53.5221V5.97345H59.4956V0Z" fill="#E73B2B"/>
<path d="M59.4956 5.97345H53.5221V11.9469H59.4956V5.97345Z" fill="#273C4E"/>
<path d="M59.4956 11.9469H53.5221V17.9203H59.4956V11.9469Z" fill="#FFDE44"/>
<path d="M59.4956 17.9203H53.5221V23.8938H59.4956V17.9203Z" fill="#B91F27"/>
<path d="M59.4956 23.8938H53.5221V29.8672H59.4956V23.8938Z" fill="#273C4E"/>
<path d="M59.4956 29.6283H53.5221V35.6017H59.4956V29.6283Z" fill="#E73B2B"/>
<path d="M65.469 0H59.4956V5.97345H65.469V0Z" fill="#B91F27"/>
<path d="M65.469 5.97345H59.4956V11.9469H65.469V5.97345Z" fill="#FFDE44"/>
<path d="M65.469 11.9469H59.4956V17.9203H65.469V11.9469Z" fill="#E73B2B"/>
<path d="M65.469 17.9203H59.4956V23.8938H65.469V17.9203Z" fill="#1F2522"/>
<path d="M65.469 23.8938H59.4956V29.8672H65.469V23.8938Z" fill="#FFDE44"/>
<path d="M65.469 29.6283H59.4956V35.6017H65.469V29.6283Z" fill="#B91F27"/>
<path d="M71.4425 0H65.469V5.97345H71.4425V0Z" fill="#FFDE44"/>
<path d="M71.4425 5.97345H65.469V11.9469H71.4425V5.97345Z" fill="#1F2522"/>
<path d="M71.4425 11.9469H65.469V17.9203H71.4425V11.9469Z" fill="#273C4E"/>
<path d="M71.4425 17.9203H65.469V23.8938H71.4425V17.9203Z" fill="#B91F27"/>
<path d="M71.4425 23.8938H65.469V29.8672H71.4425V23.8938Z" fill="#E73B2B"/>
<path d="M71.4425 29.6283H65.469V35.6017H71.4425V29.6283Z" fill="#FFDE44"/>
<path d="M71.4425 101.071H65.469V107.044H71.4425V101.071Z" fill="#B91F27"/>
<path d="M71.4425 95.0974H65.469V101.071H71.4425V95.0974Z" fill="#1F2522"/>
<path d="M71.4425 89.1239H65.469V95.0973H71.4425V89.1239Z" fill="#E73B2B"/>
<path d="M71.4425 83.1504H65.469V89.1239H71.4425V83.1504Z" fill="#FFDE44"/>
<path d="M71.4425 77.4159H65.469V83.3894H71.4425V77.4159Z" fill="#B91F27"/>
<path d="M71.4425 71.4425H65.469V77.4159H71.4425V71.4425Z" fill="#273C4E"/>
<path d="M65.469 101.071H59.4956V107.044H65.469V101.071Z" fill="#FFDE44"/>
<path d="M65.469 95.0974H59.4956V101.071H65.469V95.0974Z" fill="#273C4E"/>
<path d="M65.469 89.1239H59.4956V95.0973H65.469V89.1239Z" fill="#B91F27"/>
<path d="M65.469 83.1504H59.4956V89.1239H65.469V83.1504Z" fill="#E73B2B"/>
<path d="M65.469 77.4159H59.4956V83.3894H65.469V77.4159Z" fill="#FFDE44"/>
<path d="M65.469 71.4425H59.4956V77.4159H65.469V71.4425Z" fill="#1F2522"/>
<path d="M59.4956 101.071H53.5221V107.044H59.4956V101.071Z" fill="#1F2522"/>
<path d="M59.4956 95.0974H53.5221V101.071H59.4956V95.0974Z" fill="#B91F27"/>
<path d="M59.4956 89.1239H53.5221V95.0973H59.4956V89.1239Z" fill="#E73B2B"/>
<path d="M59.4956 83.1504H53.5221V89.1239H59.4956V83.1504Z" fill="#273C4E"/>
<path d="M59.4956 77.4159H53.5221V83.3894H59.4956V77.4159Z" fill="#E73B2B"/>
<path d="M59.4956 71.4425H53.5221V77.4159H59.4956V71.4425Z" fill="#FFDE44"/>
<path d="M53.5221 101.071H47.5486V107.044H53.5221V101.071Z" fill="#E73B2B"/>
<path d="M53.5221 95.0974H47.5486V101.071H53.5221V95.0974Z" fill="#273C4E"/>
<path d="M53.5221 89.1239H47.5486V95.0973H53.5221V89.1239Z" fill="#FFDE44"/>
<path d="M53.5221 83.1504H47.5486V89.1239H53.5221V83.1504Z" fill="#B91F27"/>
<path d="M53.5221 77.4159H47.5486V83.3894H53.5221V77.4159Z" fill="#273C4E"/>
<path d="M53.5221 71.4425H47.5486V77.4159H53.5221V71.4425Z" fill="#E73B2B"/>
<path d="M47.5486 101.071H41.5752V107.044H47.5486V101.071Z" fill="#B91F27"/>
<path d="M47.5486 95.0974H41.5752V101.071H47.5486V95.0974Z" fill="#FFDE44"/>
<path d="M47.5486 89.1239H41.5752V95.0973H47.5486V89.1239Z" fill="#E73B2B"/>
<path d="M47.5486 83.1504H41.5752V89.1239H47.5486V83.1504Z" fill="#1F2522"/>
<path d="M47.5486 77.4159H41.5752V83.3894H47.5486V77.4159Z" fill="#FFDE44"/>
<path d="M47.5486 71.4425H41.5752V77.4159H47.5486V71.4425Z" fill="#B91F27"/>
<path d="M41.5752 101.071H35.6017V107.044H41.5752V101.071Z" fill="#FFDE44"/>
<path d="M41.5752 95.0974H35.6017V101.071H41.5752V95.0974Z" fill="#1F2522"/>
<path d="M41.5752 89.1239H35.6017V95.0973H41.5752V89.1239Z" fill="#273C4E"/>
<path d="M41.5752 83.1504H35.6017V89.1239H41.5752V83.1504Z" fill="#B91F27"/>
<path d="M41.5752 77.4159H35.6017V83.3894H41.5752V77.4159Z" fill="#E73B2B"/>
<path d="M41.5752 71.4425H35.6017V77.4159H41.5752V71.4425Z" fill="#FFDE44"/>
<path d="M5.97345 65.469H0V71.4425H5.97345V65.469Z" fill="#B91F27"/>
<path d="M11.9469 65.469H5.97345V71.4425H11.9469V65.469Z" fill="#1F2522"/>
<path d="M17.9204 65.469H11.9469V71.4425H17.9204V65.469Z" fill="#E73B2B"/>
<path d="M23.8938 65.469H17.9203V71.4425H23.8938V65.469Z" fill="#FFDE44"/>
<path d="M29.8673 65.469H23.8938V71.4425H29.8673V65.469Z" fill="#B91F27"/>
<path d="M35.6017 65.469H29.6283V71.4425H35.6017V65.469Z" fill="#273C4E"/>
<path d="M5.97345 59.4956H0V65.469H5.97345V59.4956Z" fill="#FFDE44"/>
<path d="M11.9469 59.4956H5.97345V65.469H11.9469V59.4956Z" fill="#273C4E"/>
<path d="M17.9204 59.4956H11.9469V65.469H17.9204V59.4956Z" fill="#B91F27"/>
<path d="M23.8938 59.4956H17.9203V65.469H23.8938V59.4956Z" fill="#E73B2B"/>
<path d="M29.8673 59.4956H23.8938V65.469H29.8673V59.4956Z" fill="#FFDE44"/>
<path d="M35.6017 59.4956H29.6283V65.469H35.6017V59.4956Z" fill="#1F2522"/>
<path d="M5.97345 53.5221H0V59.4955H5.97345V53.5221Z" fill="#1F2522"/>
<path d="M11.9469 53.5221H5.97345V59.4955H11.9469V53.5221Z" fill="#B91F27"/>
<path d="M17.9204 53.5221H11.9469V59.4955H17.9204V53.5221Z" fill="#E73B2B"/>
<path d="M23.8938 53.5221H17.9203V59.4955H23.8938V53.5221Z" fill="#273C4E"/>
<path d="M29.8673 53.5221H23.8938V59.4955H29.8673V53.5221Z" fill="#E73B2B"/>
<path d="M35.6017 53.5221H29.6283V59.4955H35.6017V53.5221Z" fill="#FFDE44"/>
<path d="M5.97345 47.5487H0V53.5221H5.97345V47.5487Z" fill="#E73B2B"/>
<path d="M11.9469 47.5487H5.97345V53.5221H11.9469V47.5487Z" fill="#273C4E"/>
<path d="M17.9204 47.5487H11.9469V53.5221H17.9204V47.5487Z" fill="#FFDE44"/>
<path d="M23.8938 47.5487H17.9203V53.5221H23.8938V47.5487Z" fill="#B91F27"/>
<path d="M29.8673 47.5487H23.8938V53.5221H29.8673V47.5487Z" fill="#273C4E"/>
<path d="M35.6017 47.5487H29.6283V53.5221H35.6017V47.5487Z" fill="#E73B2B"/>
<path d="M5.97345 41.5752H0V47.5487H5.97345V41.5752Z" fill="#B91F27"/>
<path d="M11.9469 41.5752H5.97345V47.5487H11.9469V41.5752Z" fill="#FFDE44"/>
<path d="M17.9204 41.5752H11.9469V47.5487H17.9204V41.5752Z" fill="#E73B2B"/>
<path d="M23.8938 41.5752H17.9203V47.5487H23.8938V41.5752Z" fill="#1F2522"/>
<path d="M29.8673 41.5752H23.8938V47.5487H29.8673V41.5752Z" fill="#FFDE44"/>
<path d="M35.6017 41.5752H29.6283V47.5487H35.6017V41.5752Z" fill="#B91F27"/>
<path d="M5.97345 35.6017H0V41.5752H5.97345V35.6017Z" fill="#FFDE44"/>
<path d="M11.9469 35.6017H5.97345V41.5752H11.9469V35.6017Z" fill="#1F2522"/>
<path d="M17.9204 35.6017H11.9469V41.5752H17.9204V35.6017Z" fill="#273C4E"/>
<path d="M23.8938 35.6017H17.9203V41.5752H23.8938V35.6017Z" fill="#B91F27"/>
<path d="M29.8673 35.6017H23.8938V41.5752H29.8673V35.6017Z" fill="#E73B2B"/>
<path d="M35.6017 35.6017H29.6283V41.5752H35.6017V35.6017Z" fill="#FFDE44"/>
<path d="M107.044 35.6017H101.071V41.5752H107.044V35.6017Z" fill="#B91F27"/>
<path d="M101.071 35.6017H95.0973V41.5752H101.071V35.6017Z" fill="#1F2522"/>
<path d="M95.0973 35.6017H89.1239V41.5752H95.0973V35.6017Z" fill="#E73B2B"/>
<path d="M89.1239 35.6017H83.1504V41.5752H89.1239V35.6017Z" fill="#FFDE44"/>
<path d="M83.3894 35.6017H77.4159V41.5752H83.3894V35.6017Z" fill="#B91F27"/>
<path d="M77.4159 35.6017H71.4425V41.5752H77.4159V35.6017Z" fill="#273C4E"/>
<path d="M107.044 41.5752H101.071V47.5487H107.044V41.5752Z" fill="#FFDE44"/>
<path d="M101.071 41.5752H95.0973V47.5487H101.071V41.5752Z" fill="#273C4E"/>
<path d="M95.0973 41.5752H89.1239V47.5487H95.0973V41.5752Z" fill="#B91F27"/>
<path d="M89.1239 41.5752H83.1504V47.5487H89.1239V41.5752Z" fill="#E73B2B"/>
<path d="M83.3894 41.5752H77.4159V47.5487H83.3894V41.5752Z" fill="#FFDE44"/>
<path d="M77.4159 41.5752H71.4425V47.5487H77.4159V41.5752Z" fill="#1F2522"/>
<path d="M107.044 47.5487H101.071V53.5221H107.044V47.5487Z" fill="#1F2522"/>
<path d="M101.071 47.5487H95.0973V53.5221H101.071V47.5487Z" fill="#B91F27"/>
<path d="M95.0973 47.5487H89.1239V53.5221H95.0973V47.5487Z" fill="#E73B2B"/>
<path d="M89.1239 47.5487H83.1504V53.5221H89.1239V47.5487Z" fill="#273C4E"/>
<path d="M83.3894 47.5487H77.4159V53.5221H83.3894V47.5487Z" fill="#E73B2B"/>
<path d="M77.4159 47.5487H71.4425V53.5221H77.4159V47.5487Z" fill="#FFDE44"/>
<path d="M107.044 53.5221H101.071V59.4955H107.044V53.5221Z" fill="#E73B2B"/>
<path d="M101.071 53.5221H95.0973V59.4955H101.071V53.5221Z" fill="#273C4E"/>
<path d="M95.0973 53.5221H89.1239V59.4955H95.0973V53.5221Z" fill="#FFDE44"/>
<path d="M89.1239 53.5221H83.1504V59.4955H89.1239V53.5221Z" fill="#B91F27"/>
<path d="M83.3894 53.5221H77.4159V59.4955H83.3894V53.5221Z" fill="#273C4E"/>
<path d="M77.4159 53.5221H71.4425V59.4955H77.4159V53.5221Z" fill="#E73B2B"/>
<path d="M107.044 59.4956H101.071V65.469H107.044V59.4956Z" fill="#B91F27"/>
<path d="M101.071 59.4956H95.0973V65.469H101.071V59.4956Z" fill="#FFDE44"/>
<path d="M95.0973 59.4956H89.1239V65.469H95.0973V59.4956Z" fill="#E73B2B"/>
<path d="M89.1239 59.4956H83.1504V65.469H89.1239V59.4956Z" fill="#1F2522"/>
<path d="M83.3894 59.4956H77.4159V65.469H83.3894V59.4956Z" fill="#FFDE44"/>
<path d="M77.4159 59.4956H71.4425V65.469H77.4159V59.4956Z" fill="#B91F27"/>
<path d="M107.044 65.469H101.071V71.4425H107.044V65.469Z" fill="#FFDE44"/>
<path d="M101.071 65.469H95.0973V71.4425H101.071V65.469Z" fill="#1F2522"/>
<path d="M95.0973 65.469H89.1239V71.4425H95.0973V65.469Z" fill="#273C4E"/>
<path d="M89.1239 65.469H83.1504V71.4425H89.1239V65.469Z" fill="#B91F27"/>
<path d="M83.3894 65.469H77.4159V71.4425H83.3894V65.469Z" fill="#E73B2B"/>
<path d="M77.4159 65.469H71.4425V71.4425H77.4159V65.469Z" fill="#FFDE44"/>
<path d="M11.9469 0H0V11.9469H11.9469V0Z" fill="#FFDE44"/>
<path d="M11.9469 0H0V11.9469H11.9469V0Z" fill="#FFDE44"/>
<path d="M23.8938 0H11.9469V11.9469H23.8938V0Z" fill="#273C4E"/>
<path d="M35.8407 0H23.8938V11.9469H35.8407V0Z" fill="#E73B2B"/>
<path d="M11.9469 11.9469H0V23.8938H11.9469V11.9469Z" fill="#B91F27"/>
<path d="M23.8938 11.9469H11.9469V23.8938H23.8938V11.9469Z" fill="#E73B2B"/>
<path d="M35.8407 11.9469H23.8938V23.8938H35.8407V11.9469Z" fill="#1F2522"/>
<path d="M11.9469 23.8938H0V35.8407H11.9469V23.8938Z" fill="#273C4E"/>
<path d="M23.8938 23.8938H11.9469V35.8407H23.8938V23.8938Z" fill="#FFDE44"/>
<path d="M35.8407 23.8938H23.8938V35.8407H35.8407V23.8938Z" fill="#B91F27"/>
<path d="M107.044 95.0974H95.0973V107.044H107.044V95.0974Z" fill="#FFDE44"/>
<path d="M107.044 95.0974H95.0973V107.044H107.044V95.0974Z" fill="#FFDE44"/>
<path d="M95.0973 95.0974H83.1504V107.044H95.0973V95.0974Z" fill="#273C4E"/>
<path d="M83.3894 95.0974H71.4425V107.044H83.3894V95.0974Z" fill="#E73B2B"/>
<path d="M107.044 83.1504H95.0973V95.0973H107.044V83.1504Z" fill="#B91F27"/>
<path d="M95.0973 83.1504H83.1504V95.0973H95.0973V83.1504Z" fill="#E73B2B"/>
<path d="M83.3894 83.1504H71.4425V95.0973H83.3894V83.1504Z" fill="#1F2522"/>
<path d="M107.044 71.4425H95.0973V83.3894H107.044V71.4425Z" fill="#273C4E"/>
<path d="M95.0973 71.4425H83.1504V83.3894H95.0973V71.4425Z" fill="#FFDE44"/>
<path d="M83.3894 71.4425H71.4425V83.3894H83.3894V71.4425Z" fill="#B91F27"/>
<path d="M74.3097 0H71.4425V2.86726H74.3097V0Z" fill="#1F2522"/>
<path d="M74.3097 2.86728H71.4425V5.73454H74.3097V2.86728Z" fill="#273C4E"/>
<path d="M74.3097 5.97345H71.4425V8.84071H74.3097V5.97345Z" fill="#B91F27"/>
<path d="M74.3097 8.84073H71.4425V11.708H74.3097V8.84073Z" fill="#E73B2B"/>
<path d="M74.3097 11.9469H71.4425V14.8142H74.3097V11.9469Z" fill="#FFDE44"/>
<path d="M74.3097 14.8142H71.4425V17.6814H74.3097V14.8142Z" fill="#E73B2B"/>
<path d="M74.3097 17.9203H71.4425V20.7876H74.3097V17.9203Z" fill="#B91F27"/>
<path d="M74.3097 20.7876H71.4425V23.6549H74.3097V20.7876Z" fill="#273C4E"/>
<path d="M74.3097 23.8938H71.4425V26.7611H74.3097V23.8938Z" fill="#1F2522"/>
<path d="M74.3097 26.7611H71.4425V29.6283H74.3097V26.7611Z" fill="#B91F27"/>
<path d="M74.3097 29.6283H71.4425V32.4956H74.3097V29.6283Z" fill="#FFDE44"/>
<path d="M74.3097 32.7345H71.4425V35.6018H74.3097V32.7345Z" fill="#E73B2B"/>
<path d="M77.177 0H74.3098V2.86726H77.177V0Z" fill="#B91F27"/>
<path d="M77.177 2.86728H74.3098V5.73454H77.177V2.86728Z" fill="#FFDE44"/>
<path d="M77.177 5.97345H74.3098V8.84071H77.177V5.97345Z" fill="#E73B2B"/>
<path d="M77.177 8.84073H74.3098V11.708H77.177V8.84073Z" fill="#B91F27"/>
<path d="M77.177 11.9469H74.3098V14.8142H77.177V11.9469Z" fill="#273C4E"/>
<path d="M77.177 14.8142H74.3098V17.6814H77.177V14.8142Z" fill="#FFDE44"/>
<path d="M77.177 17.9203H74.3098V20.7876H77.177V17.9203Z" fill="#1F2522"/>
<path d="M77.177 20.7876H74.3098V23.6549H77.177V20.7876Z" fill="#B91F27"/>
<path d="M77.177 23.8938H74.3098V26.7611H77.177V23.8938Z" fill="#E73B2B"/>
<path d="M77.177 26.7611H74.3098V29.6283H77.177V26.7611Z" fill="#FFDE44"/>
<path d="M77.177 29.6283H74.3098V32.4956H77.177V29.6283Z" fill="#273C4E"/>
<path d="M77.177 32.7345H74.3098V35.6018H77.177V32.7345Z" fill="#B91F27"/>
<path d="M80.2832 0H77.4159V2.86726H80.2832V0Z" fill="#1F2522"/>
<path d="M80.2832 2.86728H77.4159V5.73454H80.2832V2.86728Z" fill="#E73B2B"/>
<path d="M80.2832 5.97345H77.4159V8.84071H80.2832V5.97345Z" fill="#273C4E"/>
<path d="M80.2832 8.84073H77.4159V11.708H80.2832V8.84073Z" fill="#1F2522"/>
<path d="M80.2832 11.9469H77.4159V14.8142H80.2832V11.9469Z" fill="#FFDE44"/>
<path d="M80.2832 14.8142H77.4159V17.6814H80.2832V14.8142Z" fill="#273C4E"/>
<path d="M80.2832 17.9203H77.4159V20.7876H80.2832V17.9203Z" fill="#B91F27"/>
<path d="M80.2832 20.7876H77.4159V23.6549H80.2832V20.7876Z" fill="#E73B2B"/>
<path d="M80.2832 23.8938H77.4159V26.7611H80.2832V23.8938Z" fill="#1F2522"/>
<path d="M80.2832 26.7611H77.4159V29.6283H80.2832V26.7611Z" fill="#273C4E"/>
<path d="M80.2832 29.6283H77.4159V32.4956H80.2832V29.6283Z" fill="#B91F27"/>
<path d="M80.2832 32.7345H77.4159V35.6018H80.2832V32.7345Z" fill="#FFDE44"/>
<path d="M83.1505 0H80.2832V2.86726H83.1505V0Z" fill="#FFDE44"/>
<path d="M83.1505 2.86728H80.2832V5.73454H83.1505V2.86728Z" fill="#B91F27"/>
<path d="M83.1505 5.97345H80.2832V8.84071H83.1505V5.97345Z" fill="#E73B2B"/>
<path d="M83.1505 8.84073H80.2832V11.708H83.1505V8.84073Z" fill="#273C4E"/>
<path d="M83.1505 11.9469H80.2832V14.8142H83.1505V11.9469Z" fill="#1F2522"/>
<path d="M83.1505 14.8142H80.2832V17.6814H83.1505V14.8142Z" fill="#E73B2B"/>
<path d="M83.1505 17.9203H80.2832V20.7876H83.1505V17.9203Z" fill="#FFDE44"/>
<path d="M83.1505 20.7876H80.2832V23.6549H83.1505V20.7876Z" fill="#B91F27"/>
<path d="M83.1505 23.8938H80.2832V26.7611H83.1505V23.8938Z" fill="#273C4E"/>
<path d="M83.1505 26.7611H80.2832V29.6283H83.1505V26.7611Z" fill="#1F2522"/>
<path d="M83.1505 29.6283H80.2832V32.4956H83.1505V29.6283Z" fill="#273C4E"/>
<path d="M83.1505 32.7345H80.2832V35.6018H83.1505V32.7345Z" fill="#E73B2B"/>
<path d="M97.9646 0H95.0973V2.86726H97.9646V0Z" fill="#E73B2B"/>
<path d="M97.9646 2.86728H95.0973V5.73454H97.9646V2.86728Z" fill="#273C4E"/>
<path d="M97.9646 5.97345H95.0973V8.84071H97.9646V5.97345Z" fill="#1F2522"/>
<path d="M97.9646 8.84073H95.0973V11.708H97.9646V8.84073Z" fill="#B91F27"/>
<path d="M97.9646 11.9469H95.0973V14.8142H97.9646V11.9469Z" fill="#FFDE44"/>
<path d="M97.9646 14.8142H95.0973V17.6814H97.9646V14.8142Z" fill="#273C4E"/>
<path d="M97.9646 17.9203H95.0973V20.7876H97.9646V17.9203Z" fill="#E73B2B"/>
<path d="M97.9646 20.7876H95.0973V23.6549H97.9646V20.7876Z" fill="#FFDE44"/>
<path d="M97.9646 23.8938H95.0973V26.7611H97.9646V23.8938Z" fill="#E73B2B"/>
<path d="M97.9646 26.7611H95.0973V29.6283H97.9646V26.7611Z" fill="#B91F27"/>
<path d="M97.9646 29.6283H95.0973V32.4956H97.9646V29.6283Z" fill="#273C4E"/>
<path d="M97.9646 32.7345H95.0973V35.6018H97.9646V32.7345Z" fill="#1F2522"/>
<path d="M101.071 0H98.2036V2.86726H101.071V0Z" fill="#273C4E"/>
<path d="M101.071 2.86728H98.2036V5.73454H101.071V2.86728Z" fill="#FFDE44"/>
<path d="M101.071 5.97345H98.2036V8.84071H101.071V5.97345Z" fill="#E73B2B"/>
<path d="M101.071 8.84073H98.2036V11.708H101.071V8.84073Z" fill="#273C4E"/>
<path d="M101.071 11.9469H98.2036V14.8142H101.071V11.9469Z" fill="#B91F27"/>
<path d="M101.071 14.8142H98.2036V17.6814H101.071V14.8142Z" fill="#E73B2B"/>
<path d="M101.071 17.9203H98.2036V20.7876H101.071V17.9203Z" fill="#FFDE44"/>
<path d="M101.071 20.7876H98.2036V23.6549H101.071V20.7876Z" fill="#273C4E"/>
<path d="M101.071 23.8938H98.2036V26.7611H101.071V23.8938Z" fill="#1F2522"/>
<path d="M101.071 26.7611H98.2036V29.6283H101.071V26.7611Z" fill="#FFDE44"/>
<path d="M101.071 29.6283H98.2036V32.4956H101.071V29.6283Z" fill="#E73B2B"/>
<path d="M101.071 32.7345H98.2036V35.6018H101.071V32.7345Z" fill="#B91F27"/>
<path d="M86.0177 0H83.1504V2.86726H86.0177V0Z" fill="#B91F27"/>
<path d="M86.0177 2.86728H83.1504V5.73454H86.0177V2.86728Z" fill="#273C4E"/>
<path d="M86.0177 5.97345H83.1504V8.84071H86.0177V5.97345Z" fill="#B91F27"/>
<path d="M86.0177 8.84073H83.1504V11.708H86.0177V8.84073Z" fill="#FFDE44"/>
<path d="M86.0177 14.8142H83.1504V17.6814H86.0177V14.8142Z" fill="#FFDE44"/>
<path d="M86.0177 11.9469H83.1504V14.8142H86.0177V11.9469Z" fill="#E73B2B"/>
<path d="M86.0177 17.9203H83.1504V20.7876H86.0177V17.9203Z" fill="#B91F27"/>
<path d="M86.0177 20.7876H83.1504V23.6549H86.0177V20.7876Z" fill="#273C4E"/>
<path d="M86.0177 23.8938H83.1504V26.7611H86.0177V23.8938Z" fill="#FFDE44"/>
<path d="M86.0177 26.7611H83.1504V29.6283H86.0177V26.7611Z" fill="#B91F27"/>
<path d="M86.0177 32.7345H83.1504V35.6018H86.0177V32.7345Z" fill="#1F2522"/>
<path d="M86.0177 29.6283H83.1504V32.4956H86.0177V29.6283Z" fill="#E73B2B"/>
<path d="M89.1239 0H86.2567V2.86726H89.1239V0Z" fill="#E73B2B"/>
<path d="M89.1239 2.86728H86.2567V5.73454H89.1239V2.86728Z" fill="#FFDE44"/>
<path d="M89.1239 5.97345H86.2567V8.84071H89.1239V5.97345Z" fill="#E73B2B"/>
<path d="M89.1239 8.84073H86.2567V11.708H89.1239V8.84073Z" fill="#B91F27"/>
<path d="M89.1239 11.9469H86.2567V14.8142H89.1239V11.9469Z" fill="#273C4E"/>
<path d="M89.1239 14.8142H86.2567V17.6814H89.1239V14.8142Z" fill="#E73B2B"/>
<path d="M89.1239 17.9203H86.2567V20.7876H89.1239V17.9203Z" fill="#1F2522"/>
<path d="M89.1239 20.7876H86.2567V23.6549H89.1239V20.7876Z" fill="#B91F27"/>
<path d="M89.1239 23.8938H86.2567V26.7611H89.1239V23.8938Z" fill="#E73B2B"/>
<path d="M89.1239 26.7611H86.2567V29.6283H89.1239V26.7611Z" fill="#FFDE44"/>
<path d="M89.1239 29.6283H86.2567V32.4956H89.1239V29.6283Z" fill="#273C4E"/>
<path d="M89.1239 32.7345H86.2567V35.6018H89.1239V32.7345Z" fill="#B91F27"/>
<path d="M91.9911 0H89.1239V2.86726H91.9911V0Z" fill="#1F2522"/>
<path d="M91.9911 2.86728H89.1239V5.73454H91.9911V2.86728Z" fill="#E73B2B"/>
<path d="M91.9911 5.97345H89.1239V8.84071H91.9911V5.97345Z" fill="#273C4E"/>
<path d="M91.9911 8.84073H89.1239V11.708H91.9911V8.84073Z" fill="#1F2522"/>
<path d="M91.9911 11.9469H89.1239V14.8142H91.9911V11.9469Z" fill="#FFDE44"/>
<path d="M91.9911 14.8142H89.1239V17.6814H91.9911V14.8142Z" fill="#273C4E"/>
<path d="M91.9911 17.9203H89.1239V20.7876H91.9911V17.9203Z" fill="#B91F27"/>
<path d="M91.9911 20.7876H89.1239V23.6549H91.9911V20.7876Z" fill="#E73B2B"/>
<path d="M91.9911 23.8938H89.1239V26.7611H91.9911V23.8938Z" fill="#1F2522"/>
<path d="M91.9911 26.7611H89.1239V29.6283H91.9911V26.7611Z" fill="#273C4E"/>
<path d="M91.9911 29.6283H89.1239V32.4956H91.9911V29.6283Z" fill="#B91F27"/>
<path d="M91.9911 32.7345H89.1239V35.6018H91.9911V32.7345Z" fill="#FFDE44"/>
<path d="M95.0974 0H92.2301V2.86726H95.0974V0Z" fill="#FFDE44"/>
<path d="M95.0974 2.86728H92.2301V5.73454H95.0974V2.86728Z" fill="#B91F27"/>
<path d="M95.0974 5.97345H92.2301V8.84071H95.0974V5.97345Z" fill="#E73B2B"/>
<path d="M95.0974 8.84073H92.2301V11.708H95.0974V8.84073Z" fill="#273C4E"/>
<path d="M95.0974 11.9469H92.2301V14.8142H95.0974V11.9469Z" fill="#1F2522"/>
<path d="M95.0974 14.8142H92.2301V17.6814H95.0974V14.8142Z" fill="#E73B2B"/>
<path d="M95.0974 17.9203H92.2301V20.7876H95.0974V17.9203Z" fill="#FFDE44"/>
<path d="M95.0974 20.7876H92.2301V23.6549H95.0974V20.7876Z" fill="#B91F27"/>
<path d="M95.0974 23.8938H92.2301V26.7611H95.0974V23.8938Z" fill="#273C4E"/>
<path d="M95.0974 26.7611H92.2301V29.6283H95.0974V26.7611Z" fill="#1F2522"/>
<path d="M95.0974 29.6283H92.2301V32.4956H95.0974V29.6283Z" fill="#FFDE44"/>
<path d="M95.0974 32.7345H92.2301V35.6018H95.0974V32.7345Z" fill="#E73B2B"/>
<path d="M107.044 0H104.177V2.86726H107.044V0Z" fill="#FFDE44"/>
<path d="M107.044 2.86728H104.177V5.73454H107.044V2.86728Z" fill="#B91F27"/>
<path d="M107.044 5.97345H104.177V8.84071H107.044V5.97345Z" fill="#E73B2B"/>
<path d="M107.044 8.84073H104.177V11.708H107.044V8.84073Z" fill="#273C4E"/>
<path d="M107.044 11.9469H104.177V14.8142H107.044V11.9469Z" fill="#1F2522"/>
<path d="M107.044 14.8142H104.177V17.6814H107.044V14.8142Z" fill="#E73B2B"/>
<path d="M107.044 17.9203H104.177V20.7876H107.044V17.9203Z" fill="#FFDE44"/>
<path d="M107.044 20.7876H104.177V23.6549H107.044V20.7876Z" fill="#B91F27"/>
<path d="M107.044 23.8938H104.177V26.7611H107.044V23.8938Z" fill="#273C4E"/>
<path d="M107.044 26.7611H104.177V29.6283H107.044V26.7611Z" fill="#1F2522"/>
<path d="M107.044 29.6283H104.177V32.4956H107.044V29.6283Z" fill="#273C4E"/>
<path d="M107.044 32.7345H104.177V35.6018H107.044V32.7345Z" fill="#E73B2B"/>
<path d="M103.938 0H101.071V2.86726H103.938V0Z" fill="#B91F27"/>
<path d="M103.938 2.86728H101.071V5.73454H103.938V2.86728Z" fill="#273C4E"/>
<path d="M103.938 5.97345H101.071V8.84071H103.938V5.97345Z" fill="#B91F27"/>
<path d="M103.938 8.84073H101.071V11.708H103.938V8.84073Z" fill="#FFDE44"/>
<path d="M103.938 14.8142H101.071V17.6814H103.938V14.8142Z" fill="#FFDE44"/>
<path d="M103.938 11.9469H101.071V14.8142H103.938V11.9469Z" fill="#E73B2B"/>
<path d="M103.938 17.9203H101.071V20.7876H103.938V17.9203Z" fill="#B91F27"/>
<path d="M103.938 20.7876H101.071V23.6549H103.938V20.7876Z" fill="#E73B2B"/>
<path d="M103.938 23.8938H101.071V26.7611H103.938V23.8938Z" fill="#FFDE44"/>
<path d="M103.938 26.7611H101.071V29.6283H103.938V26.7611Z" fill="#B91F27"/>
<path d="M103.938 32.7345H101.071V35.6018H103.938V32.7345Z" fill="#1F2522"/>
<path d="M103.938 29.6283H101.071V32.4956H103.938V29.6283Z" fill="#FFDE44"/>
<path d="M2.86726 104.177H0V107.044H2.86726V104.177Z" fill="#1F2522"/>
<path d="M5.73454 104.177H2.86728V107.044H5.73454V104.177Z" fill="#273C4E"/>
<path d="M8.84071 104.177H5.97345V107.044H8.84071V104.177Z" fill="#B91F27"/>
<path d="M11.708 104.177H8.84073V107.044H11.708V104.177Z" fill="#E73B2B"/>
<path d="M14.8142 104.177H11.9469V107.044H14.8142V104.177Z" fill="#FFDE44"/>
<path d="M17.6814 104.177H14.8142V107.044H17.6814V104.177Z" fill="#E73B2B"/>
<path d="M20.7876 104.177H17.9203V107.044H20.7876V104.177Z" fill="#B91F27"/>
<path d="M23.6549 104.177H20.7876V107.044H23.6549V104.177Z" fill="#273C4E"/>
<path d="M26.7611 104.177H23.8938V107.044H26.7611V104.177Z" fill="#1F2522"/>
<path d="M29.6283 104.177H26.7611V107.044H29.6283V104.177Z" fill="#B91F27"/>
<path d="M32.4956 104.177H29.6283V107.044H32.4956V104.177Z" fill="#FFDE44"/>
<path d="M35.6018 104.177H32.7345V107.044H35.6018V104.177Z" fill="#E73B2B"/>
<path d="M2.86726 101.071H0V103.938H2.86726V101.071Z" fill="#B91F27"/>
<path d="M5.73454 101.071H2.86728V103.938H5.73454V101.071Z" fill="#FFDE44"/>
<path d="M8.84071 101.071H5.97345V103.938H8.84071V101.071Z" fill="#E73B2B"/>
<path d="M11.708 101.071H8.84073V103.938H11.708V101.071Z" fill="#B91F27"/>
<path d="M14.8142 101.071H11.9469V103.938H14.8142V101.071Z" fill="#273C4E"/>
<path d="M17.6814 101.071H14.8142V103.938H17.6814V101.071Z" fill="#FFDE44"/>
<path d="M20.7876 101.071H17.9203V103.938H20.7876V101.071Z" fill="#1F2522"/>
<path d="M23.6549 101.071H20.7876V103.938H23.6549V101.071Z" fill="#B91F27"/>
<path d="M26.7611 101.071H23.8938V103.938H26.7611V101.071Z" fill="#E73B2B"/>
<path d="M29.6283 101.071H26.7611V103.938H29.6283V101.071Z" fill="#FFDE44"/>
<path d="M32.4956 101.071H29.6283V103.938H32.4956V101.071Z" fill="#273C4E"/>
<path d="M35.6018 101.071H32.7345V103.938H35.6018V101.071Z" fill="#B91F27"/>
<path d="M2.86726 98.2036H0V101.071H2.86726V98.2036Z" fill="#1F2522"/>
<path d="M5.73454 98.2036H2.86728V101.071H5.73454V98.2036Z" fill="#E73B2B"/>
<path d="M8.84071 98.2036H5.97345V101.071H8.84071V98.2036Z" fill="#273C4E"/>
<path d="M11.708 98.2036H8.84073V101.071H11.708V98.2036Z" fill="#1F2522"/>
<path d="M14.8142 98.2036H11.9469V101.071H14.8142V98.2036Z" fill="#FFDE44"/>
<path d="M17.6814 98.2036H14.8142V101.071H17.6814V98.2036Z" fill="#273C4E"/>
<path d="M20.7876 98.2036H17.9203V101.071H20.7876V98.2036Z" fill="#B91F27"/>
<path d="M23.6549 98.2036H20.7876V101.071H23.6549V98.2036Z" fill="#E73B2B"/>
<path d="M26.7611 98.2036H23.8938V101.071H26.7611V98.2036Z" fill="#1F2522"/>
<path d="M29.6283 98.2036H26.7611V101.071H29.6283V98.2036Z" fill="#273C4E"/>
<path d="M32.4956 98.2036H29.6283V101.071H32.4956V98.2036Z" fill="#B91F27"/>
<path d="M35.6018 98.2036H32.7345V101.071H35.6018V98.2036Z" fill="#FFDE44"/>
<path d="M2.86726 95.0974H0V97.9646H2.86726V95.0974Z" fill="#FFDE44"/>
<path d="M5.73454 95.0974H2.86728V97.9646H5.73454V95.0974Z" fill="#B91F27"/>
<path d="M8.84071 95.0974H5.97345V97.9646H8.84071V95.0974Z" fill="#E73B2B"/>
<path d="M11.708 95.0974H8.84073V97.9646H11.708V95.0974Z" fill="#273C4E"/>
<path d="M14.8142 95.0974H11.9469V97.9646H14.8142V95.0974Z" fill="#1F2522"/>
<path d="M17.6814 95.0974H14.8142V97.9646H17.6814V95.0974Z" fill="#E73B2B"/>
<path d="M20.7876 95.0974H17.9203V97.9646H20.7876V95.0974Z" fill="#FFDE44"/>
<path d="M23.6549 95.0974H20.7876V97.9646H23.6549V95.0974Z" fill="#B91F27"/>
<path d="M26.7611 95.0974H23.8938V97.9646H26.7611V95.0974Z" fill="#273C4E"/>
<path d="M29.6283 95.0974H26.7611V97.9646H29.6283V95.0974Z" fill="#1F2522"/>
<path d="M32.4956 95.0974H29.6283V97.9646H32.4956V95.0974Z" fill="#273C4E"/>
<path d="M35.6018 95.0974H32.7345V97.9646H35.6018V95.0974Z" fill="#E73B2B"/>
<path d="M2.86726 80.2832H0V83.1505H2.86726V80.2832Z" fill="#E73B2B"/>
<path d="M5.73454 80.2832H2.86728V83.1505H5.73454V80.2832Z" fill="#273C4E"/>
<path d="M8.84071 80.2832H5.97345V83.1505H8.84071V80.2832Z" fill="#1F2522"/>
<path d="M11.708 80.2832H8.84073V83.1505H11.708V80.2832Z" fill="#B91F27"/>
<path d="M14.8142 80.2832H11.9469V83.1505H14.8142V80.2832Z" fill="#FFDE44"/>
<path d="M17.6814 80.2832H14.8142V83.1505H17.6814V80.2832Z" fill="#273C4E"/>
<path d="M20.7876 80.2832H17.9203V83.1505H20.7876V80.2832Z" fill="#E73B2B"/>
<path d="M23.6549 80.2832H20.7876V83.1505H23.6549V80.2832Z" fill="#FFDE44"/>
<path d="M26.7611 80.2832H23.8938V83.1505H26.7611V80.2832Z" fill="#E73B2B"/>
<path d="M29.6283 80.2832H26.7611V83.1505H29.6283V80.2832Z" fill="#B91F27"/>
<path d="M32.4956 80.2832H29.6283V83.1505H32.4956V80.2832Z" fill="#273C4E"/>
<path d="M35.6018 80.2832H32.7345V83.1505H35.6018V80.2832Z" fill="#1F2522"/>
<path d="M2.86726 77.4159H0V80.2832H2.86726V77.4159Z" fill="#273C4E"/>
<path d="M5.73454 77.4159H2.86728V80.2832H5.73454V77.4159Z" fill="#FFDE44"/>
<path d="M8.84071 77.4159H5.97345V80.2832H8.84071V77.4159Z" fill="#E73B2B"/>
<path d="M11.708 77.4159H8.84073V80.2832H11.708V77.4159Z" fill="#273C4E"/>
<path d="M14.8142 77.4159H11.9469V80.2832H14.8142V77.4159Z" fill="#B91F27"/>
<path d="M17.6814 77.4159H14.8142V80.2832H17.6814V77.4159Z" fill="#E73B2B"/>
<path d="M20.7876 77.4159H17.9203V80.2832H20.7876V77.4159Z" fill="#FFDE44"/>
<path d="M23.6549 77.4159H20.7876V80.2832H23.6549V77.4159Z" fill="#273C4E"/>
<path d="M26.7611 77.4159H23.8938V80.2832H26.7611V77.4159Z" fill="#1F2522"/>
<path d="M29.6283 77.4159H26.7611V80.2832H29.6283V77.4159Z" fill="#FFDE44"/>
<path d="M32.4956 77.4159H29.6283V80.2832H32.4956V77.4159Z" fill="#E73B2B"/>
<path d="M35.6018 77.4159H32.7345V80.2832H35.6018V77.4159Z" fill="#B91F27"/>
<path d="M2.86726 92.2301H0V95.0974H2.86726V92.2301Z" fill="#B91F27"/>
<path d="M5.73454 92.2301H2.86728V95.0974H5.73454V92.2301Z" fill="#273C4E"/>
<path d="M8.84071 92.2301H5.97345V95.0974H8.84071V92.2301Z" fill="#B91F27"/>
<path d="M11.708 92.2301H8.84073V95.0974H11.708V92.2301Z" fill="#FFDE44"/>
<path d="M17.6814 92.2301H14.8142V95.0974H17.6814V92.2301Z" fill="#FFDE44"/>
<path d="M14.8142 92.2301H11.9469V95.0974H14.8142V92.2301Z" fill="#E73B2B"/>
<path d="M20.7876 92.2301H17.9203V95.0974H20.7876V92.2301Z" fill="#B91F27"/>
<path d="M23.6549 92.2301H20.7876V95.0974H23.6549V92.2301Z" fill="#273C4E"/>
<path d="M26.7611 92.2301H23.8938V95.0974H26.7611V92.2301Z" fill="#FFDE44"/>
<path d="M29.6283 92.2301H26.7611V95.0974H29.6283V92.2301Z" fill="#B91F27"/>
<path d="M35.6018 92.2301H32.7345V95.0974H35.6018V92.2301Z" fill="#1F2522"/>
<path d="M32.4956 92.2301H29.6283V95.0974H32.4956V92.2301Z" fill="#E73B2B"/>
<path d="M2.86726 89.1239H0V91.9911H2.86726V89.1239Z" fill="#E73B2B"/>
<path d="M5.73454 89.1239H2.86728V91.9911H5.73454V89.1239Z" fill="#FFDE44"/>
<path d="M8.84071 89.1239H5.97345V91.9911H8.84071V89.1239Z" fill="#E73B2B"/>
<path d="M11.708 89.1239H8.84073V91.9911H11.708V89.1239Z" fill="#B91F27"/>
<path d="M14.8142 89.1239H11.9469V91.9911H14.8142V89.1239Z" fill="#273C4E"/>
<path d="M17.6814 89.1239H14.8142V91.9911H17.6814V89.1239Z" fill="#E73B2B"/>
<path d="M20.7876 89.1239H17.9203V91.9911H20.7876V89.1239Z" fill="#1F2522"/>
<path d="M23.6549 89.1239H20.7876V91.9911H23.6549V89.1239Z" fill="#B91F27"/>
<path d="M26.7611 89.1239H23.8938V91.9911H26.7611V89.1239Z" fill="#E73B2B"/>
<path d="M29.6283 89.1239H26.7611V91.9911H29.6283V89.1239Z" fill="#FFDE44"/>
<path d="M32.4956 89.1239H29.6283V91.9911H32.4956V89.1239Z" fill="#273C4E"/>
<path d="M35.6018 89.1239H32.7345V91.9911H35.6018V89.1239Z" fill="#B91F27"/>
<path d="M2.86726 86.2567H0V89.1239H2.86726V86.2567Z" fill="#1F2522"/>
<path d="M5.73454 86.2567H2.86728V89.1239H5.73454V86.2567Z" fill="#E73B2B"/>
<path d="M8.84071 86.2567H5.97345V89.1239H8.84071V86.2567Z" fill="#273C4E"/>
<path d="M11.708 86.2567H8.84073V89.1239H11.708V86.2567Z" fill="#1F2522"/>
<path d="M14.8142 86.2567H11.9469V89.1239H14.8142V86.2567Z" fill="#FFDE44"/>
<path d="M17.6814 86.2567H14.8142V89.1239H17.6814V86.2567Z" fill="#273C4E"/>
<path d="M20.7876 86.2567H17.9203V89.1239H20.7876V86.2567Z" fill="#B91F27"/>
<path d="M23.6549 86.2567H20.7876V89.1239H23.6549V86.2567Z" fill="#E73B2B"/>
<path d="M26.7611 86.2567H23.8938V89.1239H26.7611V86.2567Z" fill="#1F2522"/>
<path d="M29.6283 86.2567H26.7611V89.1239H29.6283V86.2567Z" fill="#273C4E"/>
<path d="M32.4956 86.2567H29.6283V89.1239H32.4956V86.2567Z" fill="#B91F27"/>
<path d="M35.6018 86.2567H32.7345V89.1239H35.6018V86.2567Z" fill="#FFDE44"/>
<path d="M2.86726 83.1504H0V86.0177H2.86726V83.1504Z" fill="#FFDE44"/>
<path d="M5.73454 83.1504H2.86728V86.0177H5.73454V83.1504Z" fill="#B91F27"/>
<path d="M8.84071 83.1504H5.97345V86.0177H8.84071V83.1504Z" fill="#E73B2B"/>
<path d="M11.708 83.1504H8.84073V86.0177H11.708V83.1504Z" fill="#273C4E"/>
<path d="M14.8142 83.1504H11.9469V86.0177H14.8142V83.1504Z" fill="#1F2522"/>
<path d="M17.6814 83.1504H14.8142V86.0177H17.6814V83.1504Z" fill="#E73B2B"/>
<path d="M20.7876 83.1504H17.9203V86.0177H20.7876V83.1504Z" fill="#FFDE44"/>
<path d="M23.6549 83.1504H20.7876V86.0177H23.6549V83.1504Z" fill="#B91F27"/>
<path d="M26.7611 83.1504H23.8938V86.0177H26.7611V83.1504Z" fill="#273C4E"/>
<path d="M29.6283 83.1504H26.7611V86.0177H29.6283V83.1504Z" fill="#1F2522"/>
<path d="M32.4956 83.1504H29.6283V86.0177H32.4956V83.1504Z" fill="#FFDE44"/>
<path d="M35.6018 83.1504H32.7345V86.0177H35.6018V83.1504Z" fill="#E73B2B"/>
<path d="M2.86726 71.4425H0V74.3097H2.86726V71.4425Z" fill="#FFDE44"/>
<path d="M5.73454 71.4425H2.86728V74.3097H5.73454V71.4425Z" fill="#B91F27"/>
<path d="M8.84071 71.4425H5.97345V74.3097H8.84071V71.4425Z" fill="#E73B2B"/>
<path d="M11.708 71.4425H8.84073V74.3097H11.708V71.4425Z" fill="#273C4E"/>
<path d="M14.8142 71.4425H11.9469V74.3097H14.8142V71.4425Z" fill="#1F2522"/>
<path d="M17.6814 71.4425H14.8142V74.3097H17.6814V71.4425Z" fill="#E73B2B"/>
<path d="M20.7876 71.4425H17.9203V74.3097H20.7876V71.4425Z" fill="#FFDE44"/>
<path d="M23.6549 71.4425H20.7876V74.3097H23.6549V71.4425Z" fill="#B91F27"/>
<path d="M26.7611 71.4425H23.8938V74.3097H26.7611V71.4425Z" fill="#273C4E"/>
<path d="M29.6283 71.4425H26.7611V74.3097H29.6283V71.4425Z" fill="#1F2522"/>
<path d="M32.4956 71.4425H29.6283V74.3097H32.4956V71.4425Z" fill="#273C4E"/>
<path d="M35.6018 71.4425H32.7345V74.3097H35.6018V71.4425Z" fill="#E73B2B"/>
<path d="M2.86726 74.3098H0V77.177H2.86726V74.3098Z" fill="#B91F27"/>
<path d="M5.73454 74.3098H2.86728V77.177H5.73454V74.3098Z" fill="#273C4E"/>
<path d="M8.84071 74.3098H5.97345V77.177H8.84071V74.3098Z" fill="#B91F27"/>
<path d="M11.708 74.3098H8.84073V77.177H11.708V74.3098Z" fill="#FFDE44"/>
<path d="M17.6814 74.3098H14.8142V77.177H17.6814V74.3098Z" fill="#FFDE44"/>
<path d="M14.8142 74.3098H11.9469V77.177H14.8142V74.3098Z" fill="#E73B2B"/>
<path d="M20.7876 74.3098H17.9203V77.177H20.7876V74.3098Z" fill="#B91F27"/>
<path d="M23.6549 74.3098H20.7876V77.177H23.6549V74.3098Z" fill="#E73B2B"/>
<path d="M26.7611 74.3098H23.8938V77.177H26.7611V74.3098Z" fill="#FFDE44"/>
<path d="M29.6283 74.3098H26.7611V77.177H29.6283V74.3098Z" fill="#B91F27"/>
<path d="M35.6018 74.3098H32.7345V77.177H35.6018V74.3098Z" fill="#1F2522"/>
<path d="M32.4956 74.3098H29.6283V77.177H32.4956V74.3098Z" fill="#FFDE44"/>
</g>
<defs>
<clipPath id="clip0">
<rect width="334.991" height="108" fill="white"/>
</clipPath>
</defs>
</svg>
